<?xml version="1.0" encoding="utf-8"?>
<!DOCTYPE svg PUBLIC "-//W3C//DTD SVG 20010904//EN" "http://www.w3.org/TR/2001/REC-SVG-20010904/DTD/svg10.dtd">
<svg version="1.0" xmlns="http://www.w3.org/2000/svg" width="500px" height="253px" viewBox="0 0 500 253" preserveAspectRatio="xMidYMid meet">
 <g fill="#ff8803">
  <path d="M174 209.3 c-9.9 -3 -16 -11.6 -16 -22.5 0 -2 0.5 -4 1.1 -4.4 0.8 -0.5 1 -3.4 0.6 -9 -0.5 -9.4 -0.7 -9.2 7.3 -9.4 6.8 -0.3 6.8 -0.3 9 4 1.2 2.3 3.5 4.9 5.3 6 10.5 6.2 14.6 18.2 9.4 27.4 -3.3 5.9 -11.1 9.5 -16.7 7.9z m7.8 -15.8 c0.6 -4.5 -0.7 -7.4 -3.8 -9 -6.8 -3.5 -12 4.4 -7 10.7 3.7 4.8 10.2 3.8 10.8 -1.7z"/>
  <path d="M116 162.9 c-4.7 -0.3 -10.2 -1.2 -12.2 -1.9 -3.1 -1.2 -3.8 -1.9 -3.8 -4.1 0 -3.1 -1.2 -2.8 19.5 -4.9 6.1 -0.6 16 -1.7 22 -2.5 6.1 -0.8 14.4 -1.7 18.5 -2 4.1 -0.3 8.9 -1.1 10.5 -1.7 4.4 -1.7 9.3 -5.7 10.1 -8.1 0.8 -2.7 1.9 -3.7 7.4 -7.3 5.8 -3.6 14.5 -4 20 -0.8 l3.5 2 0.3 12.5 0.3 12.5 -5.2 2.4 c-5.4 2.6 -10.7 2.9 -16.5 1 -5.4 -1.8 -8.3 -1.9 -17.4 -0.5 -18.5 2.9 -43.3 4.4 -57 3.4z m47 -6.4 c2.5 -3 -1.1 -7.2 -5.1 -6 -4.3 1.4 -3 7.5 1.6 7.5 1.2 0 2.8 -0.7 3.5 -1.5z m38.2 -5.9 c3.6 -0.8 6.3 -5.7 4.8 -8.7 -0.7 -1.1 -2.6 -2.7 -4.3 -3.4 -2.7 -1.1 -3.7 -1.1 -6.7 0.1 -4.1 1.7 -5 2.9 -5 6.7 0 2 0.8 3.2 3.1 4.6 1.8 1.1 3.7 1.8 4.3 1.6 0.6 -0.2 2.3 -0.6 3.8 -0.9z"/>
  <path d="M143.1 141.6 c-1.2 -1.8 -2.2 -4.4 -2.2 -5.7 -0.1 -1.7 -0.3 -1.9 -0.6 -0.6 -0.9 3.4 -3.3 1.6 -8 -5.9 -2.7 -4.2 -6 -9.5 -7.5 -11.8 -1.5 -2.2 -2.8 -5.3 -2.8 -6.8 0 -2.5 0.2 -2.6 4 -2.1 3.3 0.5 4 0.3 4 -1.1 0 -2.4 3.4 -2 6.9 1 2.1 1.7 3.1 3.5 3.1 5.4 0 1.8 1.3 4.1 3.8 6.7 5.2 5.6 15.2 19.7 15.2 21.5 0 1.6 -4.6 2.8 -10.7 2.8 -2.5 0 -3.6 -0.7 -5.2 -3.4z"/>
  <path d="M170.5 114.8 c-4.1 -2.2 -6.5 -5.8 -7.2 -10.3 l-0.6 -4.5 5.2 0 c5 0 5.1 0.1 5.1 2.9 0 3.4 1.2 4.5 3.9 3.6 2.7 -0.8 3.8 -3.9 1.1 -3.2 -2.2 0.6 -2.5 0.3 -3.4 -3.5 -0.5 -2 -0.2 -2.8 1.1 -3.1 1 -0.3 -1.1 -0.6 -4.7 -0.7 -10.1 -0.3 -11.4 -0.9 -11.8 -5.3 l-0.3 -3.7 8.6 0 c5.5 0 8.4 -0.4 8 -1 -0.3 -0.5 -4.6 -1 -9.6 -1 l-8.9 0 0 -4 0 -4 7.9 0 c7.7 0 7.8 0 7.4 -2.4 -0.5 -2.2 -0.1 -2.5 4 -3.1 5.4 -0.8 6.7 -0.2 6.7 3.1 0 2.3 0.2 2.4 7.5 2.4 l7.5 0 0 4 0 4 -6.5 0 c-3.7 0 -6.5 0.4 -6.5 1 0 0.6 2.8 1 6.5 1 l6.5 0 0 4 c0 3.7 -0.2 3.9 -3.5 4.6 -1.9 0.3 -4.4 0.4 -5.5 0.1 -1.6 -0.4 -1.8 -0.1 -1.4 2.3 0.5 2.5 0.3 2.8 -3 3.6 l-3.6 0.9 3.1 3.8 c2.7 3.2 2.9 4 1.7 5.4 -3 3.7 -11.2 5.4 -15.3 3.1z"/>
  <path d="M222.2 112 l-1 -3.9 4.7 -2.4 c6.3 -3.4 8.5 -7.4 8.4 -15.6 0 -3.8 -0.7 -8.2 -1.7 -10.3 -2.2 -5.1 -2.1 -5.6 2 -7.5 3.5 -1.7 3.6 -1.7 5.4 0.5 1.1 1.3 2.6 5.6 3.5 9.8 3.4 15.2 -1.5 27 -13.2 31.9 -5.7 2.4 -6.9 2 -8.1 -2.5z"/>
  <path d="M316.5 114.2 c-4.4 -2.7 -5.4 -4.4 -6.1 -9.6 l-0.7 -4.6 5.2 0 c5 0 5.1 0 5.1 3 0 4 2.5 5 5.3 2 l2.2 -2.2 -2.7 0.4 c-2.2 0.4 -2.8 0.1 -2.8 -1.3 0 -0.9 -0.3 -2.4 -0.6 -3.2 -0.3 -1 0.2 -1.7 1.3 -2 1 -0.3 -1.1 -0.6 -4.7 -0.7 -10.1 -0.3 -11.4 -0.9 -11.8 -5.3 l-0.3 -3.7 8 0 c4.7 0 8.1 -0.4 8.1 -1 0 -0.6 -3.7 -1 -9 -1 l-9 0 0 -4 0 -4 7.9 0 c7.7 0 7.8 0 7.4 -2.4 -0.5 -2.2 -0.1 -2.5 4 -3.1 5.4 -0.8 6.7 -0.2 6.7 3.1 0 2.3 0.2 2.4 7.5 2.4 l7.5 0 0 4 0 4 -6.5 0 c-3.7 0 -6.5 0.4 -6.5 1 0 0.6 2.8 1 6.5 1 l6.5 0 0 4 c0 3.7 -0.2 3.9 -3.5 4.6 -1.9 0.3 -4.4 0.4 -5.5 0.1 -1.6 -0.4 -1.8 -0.1 -1.3 2.3 0.5 2.6 0.2 2.9 -3.1 3.5 -2 0.4 -3.6 0.9 -3.6 1.2 0 0.2 1.3 1.8 3 3.6 1.6 1.8 3 3.5 3 3.9 0 0.4 -1.4 1.7 -3.1 2.9 -4.3 3 -10.6 3.5 -14.4 1.1z"/>
  <path d="M361.1 114.7 c-10.7 -3.9 -9.8 -20.2 1.4 -26.3 5.4 -2.9 4.5 -4.4 -2.5 -4.4 l-6 0 0 -4 0 -4 7 0 c6.3 0 7 -0.2 7 -2 0 -1.5 0.7 -2 2.8 -2 4.5 0 7.4 1.1 6.8 2.6 -0.4 1.1 1 1.4 6.9 1.4 l7.5 0 0 4 0 4 -8.5 0 c-8.9 0 -11.5 1.3 -4.4 2.3 8.7 1.2 14.9 8.1 14.9 16.9 0 5.1 -1.6 11.4 -3.1 12.4 -0.6 0.4 -3.5 -0.2 -6.4 -1.1 -3.8 -1.3 -5.1 -2.3 -4.8 -3.3 0.4 -0.9 -0.9 -0.5 -3.3 1.1 -4.7 3.2 -10.7 4.1 -15.3 2.4z m5.8 -11.4 c-0.5 -2.1 -0.9 -4.2 -0.9 -4.7 0 -1.4 -2.9 1.4 -3.5 3.5 -0.7 2.2 1.3 4.8 3.6 4.9 1.4 0 1.6 -0.6 0.8 -3.7z m17.1 -3.3 c0 -1.3 -3.7 -5 -4.9 -5 -0.5 0 -1.6 -0.3 -2.5 -0.6 -1.1 -0.4 -1.6 0 -1.6 1.4 0 1.3 1.2 2.4 3.8 3.5 4.6 1.9 5.2 2 5.2 0.7z"/>
  <path d="M482 113.7 c-2.5 -1.2 -4.7 -2.3 -4.9 -2.4 -0.5 -0.3 0.7 -4.5 1.8 -6.2 0.8 -1.2 1.2 -1.2 2.4 -0.2 2.3 1.8 3.2 -3.7 1.4 -8 l-1.4 -3.4 -0.8 3 c-1.3 5.2 -4.3 10.1 -7.9 13.3 -8 7 -18.1 6.1 -22.4 -1.9 -1.2 -2.3 -2.2 -5.1 -2.2 -6.3 0 -2.5 2.2 -7.5 5.2 -11.8 1.3 -1.9 1.8 -4.4 1.8 -9.2 l0 -6.6 5 0 5 0 -0.6 4.3 -0.6 4.2 4.3 -0.3 4.4 -0.4 -0.3 -4.9 -0.4 -4.9 5.1 0 5.1 0 0 5.8 c0.1 5.3 0.3 5.8 3.2 7.7 5.4 3.4 7.2 6.9 7.6 14.3 0.3 5.5 0 7.7 -1.8 11.5 -1.2 2.6 -2.7 4.7 -3.4 4.6 -0.6 0 -3.1 -1 -5.6 -2.2z m-20.1 -10 c-0.8 -0.7 -2.1 -2.1 -2.7 -3.2 -1.1 -1.9 -1.1 -1.8 -1.2 0.7 0 2.6 1.1 3.6 4 3.7 1.3 0 1.3 -0.1 -0.1 -1.2z m9.5 -11.1 c0.7 -2.7 0.6 -2.8 -2.1 -2.1 -3.7 0.9 -3.7 0.8 -1.8 4.6 1.9 3.5 2.6 3 3.9 -2.5z"/>
  <path d="M278.1 112.4 c-1.7 -1.4 -3.1 -3.2 -3.1 -3.9 0 -0.7 -1.5 0.2 -3.4 2.1 -3.6 3.6 -7.8 4.4 -13 2.4 -5.4 -2 -7.3 -12.6 -3.8 -20.5 1.4 -3 1.7 -5.7 1.4 -11.2 l-0.4 -7.3 2.8 0 c6.3 0 7.6 1 7.2 5 -0.3 3.8 0.3 4.1 5.2 2.3 0.8 -0.4 1.8 -0.5 2.3 -0.5 0.4 0.1 0.7 -0.5 0.7 -1.3 0 -0.8 -0.4 -1.5 -1 -1.5 -0.5 0 -1 -1.3 -1 -3 l0 -3 6.1 0 6 0 -0.6 5.5 c-0.5 3.9 -0.4 5.5 0.4 5.5 3 0 8.2 5.7 9.6 10.4 0.8 2.7 2.2 5.4 3.1 6.1 1.5 1 1.5 1.6 0.3 4.8 -0.7 2 -1.9 3.7 -2.6 3.7 -0.7 0 -1.3 0.7 -1.3 1.5 0 2 -5.8 5.5 -9.2 5.5 -1.4 0 -4 -1.2 -5.7 -2.6z m8.3 -5 c1.2 -0.5 1.3 -1 0.5 -2.5 -1.2 -2.3 -3.5 -2.5 -4.3 -0.3 -1.1 2.8 0.6 4 3.8 2.8z m-19.8 -3.9 c1.8 -1.4 1.8 -1.4 -0.2 -0.9 -1.5 0.4 -2.7 -0.1 -3.8 -1.7 l-1.6 -2.3 0 2.5 c0 4.2 2.1 5.1 5.6 2.4z m18.4 -7.5 c0 -0.4 -0.9 -1.8 -2 -3.1 -1.4 -1.7 -1.9 -2 -2 -0.9 0 0.8 -0.3 2.5 -0.6 3.6 -0.5 1.9 -0.2 2.1 2 1.7 1.4 -0.3 2.6 -0.9 2.6 -1.3z m-13.6 -3.2 c0.5 -2.1 0.3 -2.8 -0.8 -2.8 -2.2 0 -2.8 1.7 -1.6 4.1 1.3 2.4 1.5 2.3 2.4 -1.3z"/>
  <path d="M418.6 112 c-1.2 -6.1 -0.9 -6.5 4.3 -7.9 6.4 -1.6 10.1 -5.2 10.1 -9.8 0 -9.3 -5.3 -10.6 -27.6 -6.7 -3.1 0.6 -3.2 0.4 -3.9 -3.5 -0.4 -2.3 -1.1 -4.1 -1.6 -4.1 -0.5 0 -0.9 -0.9 -0.9 -2 0 -1.4 0.9 -2.1 3.7 -2.6 2.2 -0.4 3.8 -0.3 4 0.3 0.3 0.7 4.5 0.9 11.6 0.6 10.3 -0.4 11.6 -0.3 15.7 1.9 6.6 3.4 9.2 8.4 8.8 16.9 -0.3 5.3 -0.9 7.3 -3 10 -3.1 4.1 -10.9 8.6 -16.5 9.5 -3.9 0.6 -4 0.5 -4.7 -2.6z"/>
  <path d="M211.5 100.8 c-2.7 -7.6 -3.5 -10.6 -3.5 -14 0 -4.3 1.8 -12.8 3 -14.1 0.4 -0.5 2.6 -0.3 5 0.4 3.9 1.2 4.1 1.4 3.6 4.3 -0.3 1.7 -0.9 5.5 -1.2 8.5 l-0.7 5.3 3 -0.6 c2.6 -0.6 3.1 -0.4 3.7 1.6 1.1 4.1 0.7 4.7 -4.4 7.3 -5.5 2.8 -7.8 3.1 -8.5 1.3z"/>
 </g>
 <g fill="#04b6be">
  <path d="M14 102.8 l0 -44.8 63 0 63 0 0 29.6 0 29.7 -4.7 -4.4 c-4.7 -4.3 -4.8 -4.5 -5.3 -11.4 l-0.5 -7 -4 0 -4 0 -0.3 6 c-0.3 4.8 0 6.2 1.5 7.5 1.9 1.5 2.8 2.8 12.2 17.7 4.8 7.8 5.1 8.5 5.1 15 l0 6.8 -63 0 -63 0 0 -44.7z m18.5 29.2 l0 -6.5 -4.2 -0.3 -4.3 -0.3 0 7.1 0 7.1 4.3 -0.3 4.2 -0.3 0 -6.5z m97.3 -0.3 l0.3 -6.8 -4.3 0.3 -4.3 0.3 -0.3 5.4 c-0.4 7.4 0.1 8.3 4.5 7.9 l3.8 -0.3 0.3 -6.8z m-61.3 -12.1 c1.1 -0.7 3.6 -2.2 5.5 -3.2 10.4 -5.7 21.9 -13 21.7 -13.9 -0.3 -0.9 -7.5 -5.3 -24.4 -15.1 -3.5 -1.9 -6.7 -3.3 -7.3 -2.9 -1.1 0.7 -1.5 34.7 -0.3 35.8 1 1.1 2.7 0.8 4.8 -0.7z m-36.6 -12 c0.7 -0.8 1.1 -3.7 0.9 -6.8 l-0.3 -5.3 -4.2 -0.3 -4.3 -0.3 0 6.4 c0 3.5 0.3 6.7 0.7 7 1.2 1.2 6 0.7 7.2 -0.7z m0.6 -34.1 l0 -6 -4 0 -4 0 -0.3 6.3 -0.3 6.3 4.3 -0.3 4.3 -0.3 0 -6z m97.5 -0.6 l0 -7 -4.2 0.3 -4.3 0.3 -0.3 6.8 -0.3 6.7 4.6 0 4.5 0 0 -7.1z"/>
 </g>
</svg>